<svg width="66" height="44" viewBox="0 0 66 44" fill="none" xmlns="http://www.w3.org/2000/svg">
<path d="M65.769 23.2155L54.769 1.2155C54.5861 0.849993 54.305 0.542664 53.9572 0.32797C53.6094 0.113276 53.2087 -0.000292051 52.8 5.64029e-07H13.2C12.7913 -0.000292051 12.3906 0.113276 12.0428 0.32797C11.695 0.542664 11.4139 0.849993 11.231 1.2155L0.231 23.2155C0.0795429 23.5216 0.000506363 23.8585 0 24.2V39.6C0 40.767 0.46357 41.8861 1.28873 42.7113C2.11389 43.5364 3.23305 44 4.4 44H61.6C62.767 44 63.8861 43.5364 64.7113 42.7113C65.5364 41.8861 66 40.767 66 39.6V24.2C65.9995 23.8585 65.9205 23.5216 65.769 23.2155ZM25.0415 4.4L28.3415 11H20.0585L16.7585 4.4H25.0415ZM38.2415 4.4L41.5415 11H33.2585L29.9585 4.4H38.2415ZM25.5585 22L22.2585 15.4H30.5415L33.8415 22H25.5585ZM38.7585 22L35.4585 15.4H43.7415L47.0415 22H38.7585ZM51.9585 22L48.6585 15.4H56.9415L60.2415 22H51.9585ZM54.7415 11H46.4585L43.1585 4.4H51.4415L54.7415 11ZM4.4 24.7198L13.2 7.11975L22 24.7198V39.6H4.4V24.7198ZM26.4 39.6V26.4H61.6V39.6H26.4Z" fill="black"/>
</svg>
