<svg width="66" height="73" viewBox="0 0 66 73" fill="none" xmlns="http://www.w3.org/2000/svg">
<path d="M32.9987 57.0162C33.874 57.0162 34.7134 57.3639 35.3323 57.9828C35.9513 58.6017 36.299 59.4411 36.299 60.3164V63.6166C36.299 64.4919 35.9513 65.3313 35.3323 65.9503C34.7134 66.5692 33.874 66.9169 32.9987 66.9169C32.1234 66.9169 31.284 66.5692 30.6651 65.9503C30.0462 65.3313 29.6985 64.4919 29.6985 63.6166V60.3164C29.6985 59.4411 30.0462 58.6017 30.6651 57.9828C31.284 57.3639 32.1234 57.0162 32.9987 57.0162ZM54.0014 50.2507L56.3347 52.5839C56.9359 53.2064 57.2685 54.04 57.261 54.9053C57.2535 55.7706 56.9064 56.5984 56.2945 57.2103C55.6826 57.8222 54.8549 58.1692 53.9896 58.1768C53.1243 58.1843 52.2906 57.8516 51.6682 57.2505L49.3349 54.9172C48.7337 54.2948 48.4011 53.4611 48.4086 52.5958C48.4161 51.7305 48.7632 50.9028 49.3751 50.2909C49.987 49.679 50.8147 49.3319 51.68 49.3244C52.5454 49.3169 53.379 49.6495 54.0014 50.2507ZM11.996 50.2507C12.5899 49.6588 13.3868 49.3151 14.2249 49.2895C15.063 49.264 15.8794 49.5583 16.5084 50.1129C17.1373 50.6674 17.5315 51.4406 17.611 52.2753C17.6905 53.11 17.4494 53.9437 16.9365 54.607L16.6625 54.9172L14.3293 57.2505C13.7354 57.8424 12.9384 58.186 12.1004 58.2116C11.2623 58.2372 10.4458 57.9428 9.81693 57.3883C9.18802 56.8337 8.79377 56.0606 8.71426 55.2259C8.63474 54.3912 8.87593 53.5575 9.38882 52.8942L9.66274 52.5839L11.996 50.2507ZM32.9987 14.1131C38.2504 14.1131 43.287 16.1993 47.0005 19.9128C50.7139 23.6263 52.8002 28.6628 52.8002 33.9145C52.8002 39.1662 50.7139 44.2027 47.0005 47.9162C43.287 51.6297 38.2504 53.7159 32.9987 53.7159C27.7471 53.7159 22.7105 51.6297 18.997 47.9162C15.2835 44.2027 13.1973 39.1662 13.1973 33.9145C13.1973 28.6628 15.2835 23.6263 18.997 19.9128C22.7105 16.1993 27.7471 14.1131 32.9987 14.1131ZM32.9987 20.7135C29.4976 20.7135 26.1399 22.1043 23.6642 24.58C21.1886 27.0557 19.7978 30.4134 19.7978 33.9145C19.7978 37.4156 21.1886 40.7733 23.6642 43.249C26.1399 45.7246 29.4976 47.1154 32.9987 47.1154C36.4998 47.1154 39.8575 45.7246 42.3332 43.249C44.8089 40.7733 46.1997 37.4156 46.1997 33.9145C46.1997 30.4134 44.8089 27.0557 42.3332 24.58C39.8575 22.1043 36.4998 20.7135 32.9987 20.7135ZM6.59682 30.6143C7.43798 30.6152 8.24705 30.9373 8.8587 31.5147C9.47035 32.0922 9.83843 32.8814 9.88772 33.7211C9.93702 34.5608 9.66382 35.3877 9.12393 36.0327C8.58404 36.6777 7.81822 37.0923 6.98295 37.1916L6.59682 37.2147H3.29658C2.45542 37.2138 1.64636 36.8917 1.0347 36.3143C0.42305 35.7368 0.0549726 34.9476 0.00567653 34.1079C-0.0436195 33.2682 0.229587 32.4413 0.769474 31.7963C1.30936 31.1513 2.07518 30.7367 2.91045 30.6374L3.29658 30.6143H6.59682ZM62.7009 30.6143C63.5761 30.6143 64.4156 30.962 65.0345 31.5809C65.6534 32.1998 66.0011 33.0392 66.0011 33.9145C66.0011 34.7898 65.6534 35.6292 65.0345 36.2481C64.4156 36.867 63.5761 37.2147 62.7009 37.2147H59.4006C58.5254 37.2147 57.6859 36.867 57.067 36.2481C56.4481 35.6292 56.1004 34.7898 56.1004 33.9145C56.1004 33.0392 56.4481 32.1998 57.067 31.5809C57.6859 30.962 58.5254 30.6143 59.4006 30.6143H62.7009ZM9.66274 10.5785C10.231 10.0103 10.9871 9.66894 11.7891 9.6185C12.5912 9.56807 13.3841 9.81202 14.0191 10.3046L14.3293 10.5785L16.6625 12.9118C17.2544 13.5057 17.5981 14.3026 17.6237 15.1407C17.6493 15.9788 17.3549 16.7952 16.8003 17.4241C16.2458 18.053 15.4726 18.4473 14.6379 18.5268C13.8032 18.6063 12.9696 18.3651 12.3062 17.8522L11.996 17.5783L9.66274 15.245C9.04404 14.6262 8.69648 13.7869 8.69648 12.9118C8.69648 12.0367 9.04404 11.1974 9.66274 10.5785ZM56.3347 10.5785C56.9534 11.1974 57.301 12.0367 57.301 12.9118C57.301 13.7869 56.9534 14.6262 56.3347 15.245L54.0014 17.5783C53.697 17.8935 53.3328 18.1449 52.9302 18.3179C52.5276 18.4909 52.0945 18.5819 51.6563 18.5857C51.2181 18.5895 50.7835 18.506 50.3779 18.3401C49.9723 18.1741 49.6039 17.9291 49.294 17.6192C48.9841 17.3094 48.7391 16.9409 48.5731 16.5353C48.4072 16.1297 48.3237 15.6951 48.3275 15.2569C48.3313 14.8187 48.4224 14.3857 48.5953 13.983C48.7683 13.5804 49.0197 13.2162 49.3349 12.9118L51.6682 10.5785C52.2871 9.95981 53.1263 9.61224 54.0014 9.61224C54.8765 9.61224 55.7158 9.95981 56.3347 10.5785ZM32.9987 0.912109C33.874 0.912109 34.7134 1.25981 35.3323 1.87873C35.9513 2.49764 36.299 3.33707 36.299 4.21235V7.51259C36.299 8.38786 35.9513 9.22729 35.3323 9.84621C34.7134 10.4651 33.874 10.8128 32.9987 10.8128C32.1234 10.8128 31.284 10.4651 30.6651 9.84621C30.0462 9.22729 29.6985 8.38786 29.6985 7.51259V4.21235C29.6985 3.33707 30.0462 2.49764 30.6651 1.87873C31.284 1.25981 32.1234 0.912109 32.9987 0.912109Z" fill="black"/>
</svg>
